<svg width="42" height="42" viewBox="0 0 42 42" fill="none" xmlns="http://www.w3.org/2000/svg">
<circle cx="21" cy="21" r="21" fill="#292642"/>
<path d="M29.3338 20.141V21.8577C29.3338 22.316 28.9672 22.691 28.5005 22.7077H26.8672C25.9672 22.7077 25.1422 22.0493 25.0672 21.1493C25.0172 20.6243 25.2172 20.1327 25.5672 19.791C25.8755 19.4743 26.3005 19.291 26.7672 19.291H28.5005C28.9672 19.3077 29.3338 19.6827 29.3338 20.141Z" fill="white"/>
<path d="M28.0587 23.9583H26.867C25.2837 23.9583 23.9503 22.7666 23.817 21.25C23.742 20.3833 24.0587 19.5166 24.692 18.9C25.2253 18.35 25.967 18.0416 26.767 18.0416H28.0587C28.3003 18.0416 28.5003 17.8416 28.4753 17.6C28.292 15.575 26.9503 14.1916 24.9587 13.9583C24.7587 13.925 24.5503 13.9166 24.3337 13.9166H16.8337C16.6003 13.9166 16.3753 13.9333 16.1587 13.9666C14.0337 14.2333 12.667 15.8166 12.667 18.0833V23.9166C12.667 26.2166 14.5337 28.0833 16.8337 28.0833H24.3337C26.667 28.0833 28.2753 26.625 28.4753 24.4C28.5003 24.1583 28.3003 23.9583 28.0587 23.9583ZM21.8337 19.125H16.8337C16.492 19.125 16.2087 18.8416 16.2087 18.5C16.2087 18.1583 16.492 17.875 16.8337 17.875H21.8337C22.1753 17.875 22.4587 18.1583 22.4587 18.5C22.4587 18.8416 22.1753 19.125 21.8337 19.125Z" fill="white"/>
</svg>